<svg xmlns="http://www.w3.org/2000/svg" viewBox="-1 -1 20 25" fill="#5edd79">
  <path d="M8.7,14.16s.08,0,.11,0c1.7-.04,3.16-.86,4.02-2.27.12-.2.15-.43.1-.65-.06-.23-.19-.41-.39-.53-.19-.12-.43-.15-.65-.1-.23.06-.41.19-.53.39-.54.89-1.48,1.42-2.58,1.44-.02,0-.05,0-.07,0-1.13,0-2.21-.56-2.82-1.48-.17-.25-.44-.38-.72-.38-.16,0-.33.05-.48.15-.19.13-.32.32-.37.55-.05.23,0,.46.13.65.94,1.41,2.52,2.24,4.25,2.24Z"></path>
  <path d="M17.17,4.88L8.77.04s-.08-.04-.13-.04-.09.01-.13.04L.13,4.88c-.08.05-.13.12-.13.22v17.35c0,.11.06.19.16.23.1.04.2.02.28-.05l4.36-4.36h12.24c.14,0,.25-.11.25-.25V5.1c0-.09-.04-.17-.13-.22ZM15.25,16.23H4.06c-.07,0-.13.02-.18.07l-1.84,1.84V6.13l6.61-3.82,6.61,3.82v10.1Z"></path>
</svg>