<svg width="549" height="534" viewBox="0 0 549 534" fill="none" xmlns="http://www.w3.org/2000/svg">
<circle cx="275" cy="273" r="261" fill="#5EDD78" fill-opacity="0.1"></circle>
<circle cx="275" cy="274" r="201" fill="#5EDD78" fill-opacity="0.1"></circle>
<circle cx="275" cy="274" r="122" fill="#1C1E4F"></circle>
<circle cx="275" cy="274" r="161" transform="rotate(-90 275 274)" fill="#5EDD78" fill-opacity="0.1"></circle>
<path d="M203.027 313.138V295.222H208.037V298.794C209.109 296.323 211.467 294.846 213.557 294.846C216.371 294.846 218.782 295.705 219.934 298.741C221.221 296.431 223.793 294.846 226.097 294.846C230.759 294.846 233.466 297.881 233.466 302.85V313.138H228.348V303.952C228.348 301.668 227.517 299.708 224.731 299.708C221.944 299.708 220.845 301.373 220.845 303.952V313.138H215.674V303.952C215.674 301.642 214.656 299.708 212.057 299.708C209.458 299.708 208.171 301.561 208.171 304.193V313.138H203H203.027Z" fill="white"></path>
<path d="M241.37 305.107C241.692 307.578 243.433 309.243 246.059 309.243C248.417 309.243 249.891 308.222 250.641 306.772L255.196 307.9C254.044 311.016 251.016 313.541 246.059 313.541C240.406 313.541 236.092 309.78 236.092 304.086C236.092 298.391 240.325 294.819 245.791 294.819C251.258 294.819 255.357 298.23 255.384 303.817V305.08H241.343L241.37 305.107ZM249.998 301.937C249.489 300.137 247.881 298.929 245.818 298.929C243.862 298.929 242.362 300.084 241.692 301.937H249.998Z" fill="white"></path>
<path d="M272.318 313.138V309.485C271.622 311.472 269.183 313.514 266.289 313.541C261.172 313.568 257.367 309.646 257.367 304.435C257.367 299.224 260.877 294.873 266.129 294.873C268.808 294.873 270.925 296.243 272.158 298.902V287.406H277.543V313.165H272.318V313.138ZM267.468 308.921C270.389 308.921 272.184 306.745 272.184 304.22C272.184 301.695 270.416 299.546 267.468 299.546C264.521 299.546 262.779 301.668 262.779 304.22C262.779 306.772 264.575 308.921 267.468 308.921Z" fill="white"></path>
<path d="M284.805 296.35C284.805 296.35 287.082 297.263 287.082 300.03V313.165H281.911V295.249L284.805 296.35ZM281.964 292.026V287.782H286.975V293.315L281.964 292.026Z" fill="white"></path>
<path d="M306.428 313.138C304.365 313.138 303.079 312.09 303.079 310.452V309.109C302.355 312.251 299.408 313.487 296.621 313.487C293.406 313.487 290.378 311.848 290.378 308.357C290.378 304.865 293.513 303.146 297.13 302.689L303.052 301.856V301.131C303.052 299.573 301.31 299.17 300.024 299.143C298.149 299.143 296.702 299.546 296.487 301.615L291.316 301.131C291.396 296.78 295.282 294.873 299.81 294.873C306.08 294.873 308.331 297.29 308.331 301.131V308.679H311.358V313.138H306.455H306.428ZM298.792 305.536C297.264 305.778 295.549 306.45 295.737 307.819C295.844 308.733 296.809 309.162 297.907 309.162C298.229 309.162 298.604 309.136 298.926 309.055C300.801 308.84 302.972 307.685 303.052 305.59V304.865L298.818 305.563L298.792 305.536Z" fill="white"></path>
<path d="M311.787 294.953C313.422 294.953 314.735 293.906 315.11 292.026L315.833 288.372H320.335L319.075 294.98H325.613V299.6H319.665V308.974H326.23V313.487L319.611 313.594C316.316 313.568 314.333 311.741 314.333 308.357V299.6H310.581V294.926H311.76L311.787 294.953Z" fill="white"></path>
<path d="M337.537 294.846C344.129 294.846 347.451 299.627 347.451 304.328C347.451 309.753 343.057 313.514 337.537 313.514C332.017 313.514 327.623 309.753 327.623 304.328C327.623 299.627 330.972 294.846 337.537 294.846ZM342.253 304.193C342.253 301.615 340.458 299.573 337.537 299.573C334.616 299.573 332.821 301.588 332.821 304.166C332.821 306.745 334.67 308.76 337.537 308.76C340.404 308.76 342.253 306.745 342.253 304.193Z" fill="white"></path>
<path d="M275.312 255.034C275.312 255.034 275.526 255.034 275.606 255.034C280.161 254.927 284.073 252.724 286.378 248.937C286.699 248.4 286.78 247.782 286.646 247.191C286.485 246.573 286.137 246.09 285.601 245.768C285.092 245.445 284.449 245.365 283.859 245.499C283.243 245.66 282.76 246.009 282.439 246.546C280.992 248.937 278.473 250.361 275.526 250.414C275.472 250.414 275.392 250.414 275.338 250.414C272.311 250.414 269.417 248.91 267.782 246.439C267.327 245.768 266.603 245.418 265.853 245.418C265.424 245.418 264.969 245.553 264.567 245.821C264.058 246.17 263.709 246.681 263.575 247.299C263.441 247.916 263.575 248.534 263.924 249.044C266.442 252.832 270.676 255.061 275.312 255.061V255.034Z" fill="#5EDD78"></path>
<path d="M298.007 230.108L275.499 217.107C275.499 217.107 275.285 217 275.151 217C275.017 217 274.91 217.027 274.802 217.107L252.348 230.108C252.134 230.242 252 230.43 252 230.699V277.302C252 277.597 252.161 277.812 252.429 277.919C252.697 278.027 252.965 277.973 253.179 277.785L264.862 266.074H297.658C298.034 266.074 298.328 265.779 298.328 265.402V230.699C298.328 230.457 298.221 230.242 297.98 230.108H298.007ZM292.862 260.594H262.879C262.691 260.594 262.53 260.648 262.396 260.782L257.466 265.725V233.465L275.178 223.205L292.889 233.465V260.594H292.862Z" fill="#5EDD78"></path>
<circle cx="43.5" cy="229.5" r="43.5" transform="rotate(180 43.5 229.5)" fill="#5EDD78"></circle>
<g clip-path="url(#clip0_1_538)">
<mask id="mask0_1_538" style="mask-type:luminance" maskUnits="userSpaceOnUse" x="16" y="205" width="57" height="57">
<path d="M72.363 205H16.0091V261.354H72.363V205Z" fill="white"></path>
</mask>
<g mask="url(#mask0_1_538)">
<path d="M67.9174 211.998C64.9537 208.85 60.8592 207.01 56.5372 206.884C52.2151 206.759 48.0206 208.358 44.879 211.329L44.1662 212.002C37.992 205.454 27.6784 205.15 21.1301 211.324C14.5817 217.498 14.2783 227.812 20.4524 234.36L22.0576 236.061C21.3798 237.631 21.5964 239.443 22.6249 240.808C23.6534 242.173 25.3355 242.882 27.0308 242.663C26.7438 244.157 27.1924 245.698 28.2364 246.804C29.2805 247.911 30.7928 248.448 32.3008 248.248C32.0138 249.742 32.4622 251.282 33.5061 252.388C34.55 253.495 36.0622 254.032 37.5699 253.832C37.1964 255.86 38.1687 257.899 39.9802 258.886C41.7918 259.872 44.032 259.583 45.5337 258.169C50.8938 253.108 50.7258 253.361 51.232 252.508C52.7998 253.28 54.6647 253.127 56.0858 252.11C57.5069 251.093 58.2539 249.378 58.0301 247.645C59.5237 247.925 61.0612 247.473 62.1655 246.429C63.2698 245.385 63.8076 243.875 63.6119 242.368C65.6526 242.743 67.7014 241.756 68.6801 239.927C69.6588 238.097 69.3428 235.845 67.8987 234.356C73.8459 228.093 73.8542 218.271 67.9174 211.998ZM24.3361 239.939C23.2388 238.773 23.2917 236.939 24.4545 235.839L29.3384 231.227C30.5064 230.148 32.325 230.211 33.416 231.367C34.5071 232.524 34.4638 234.343 33.319 235.446L28.435 240.058C27.2698 241.155 25.436 241.103 24.3361 239.939ZM29.6062 245.524C28.5078 244.359 28.5607 242.524 29.7245 241.423L34.6086 236.812C35.7733 235.713 37.6084 235.766 38.7074 236.931C39.8062 238.096 39.7528 239.931 38.5881 241.03L33.704 245.642C32.5376 246.738 30.7048 246.683 29.6062 245.519V245.524ZM34.8753 251.108C33.7783 249.942 33.8317 248.108 34.9945 247.008L39.8786 242.397C41.0508 241.367 42.8271 241.45 43.8985 242.584C44.9701 243.717 44.9525 245.496 43.859 246.608L38.975 251.22C37.8107 252.319 35.9753 252.267 34.8753 251.103V251.108ZM44.2441 256.811C43.4907 257.522 42.415 257.777 41.4225 257.48C40.4299 257.183 39.6713 256.379 39.4323 255.371C39.1932 254.363 39.5101 253.304 40.2636 252.593L45.1477 247.98C46.3155 246.902 48.1342 246.964 49.2252 248.12C50.3162 249.277 50.2729 251.096 49.1281 252.199L44.2441 256.811ZM66.4597 239.795C65.9015 240.324 65.1552 240.609 64.3862 240.587C63.6171 240.565 62.8887 240.237 62.3619 239.676L49.8456 226.414C49.4896 226.037 48.8949 226.02 48.5176 226.376C48.1403 226.732 48.123 227.327 48.479 227.704L60.9981 240.965C61.7094 241.718 61.9646 242.794 61.6679 243.787C61.371 244.779 60.5672 245.538 59.5593 245.777C58.5512 246.016 57.4922 245.7 56.7809 244.946L44.2629 231.684C44.0326 231.439 43.6894 231.337 43.3628 231.414C43.0362 231.492 42.7758 231.737 42.6795 232.059C42.5834 232.381 42.666 232.729 42.8963 232.973L55.4106 246.232C56.3988 247.279 56.469 248.892 55.5755 250.02C54.6819 251.148 53.0956 251.449 51.851 250.726C52.0457 249.385 51.657 248.024 50.7827 246.988C49.9083 245.951 48.6323 245.339 47.2768 245.305C46.2438 245.278 46.6194 245.669 46.6457 244.636C46.6831 243.369 46.2153 242.139 45.3454 241.217C44.4755 240.295 43.2748 239.757 42.0078 239.721C40.9747 239.688 41.3456 240.096 41.3766 239.051C41.4136 237.784 40.9455 236.554 40.0754 235.632C39.2055 234.711 38.0048 234.172 36.7377 234.136C35.6981 234.107 36.0756 234.52 36.1066 233.466C36.1573 231.537 35.0435 229.766 33.2824 228.976C31.5213 228.186 29.458 228.532 28.0508 229.853C21.3353 236.192 23.6524 234.007 23.1518 234.48L21.8199 233.071C16.3583 227.277 16.6272 218.154 22.4206 212.692C28.2139 207.23 37.3379 207.499 42.7996 213.292L35.1073 220.557C34.3779 221.256 33.9485 222.211 33.9098 223.221C33.8158 227.079 39.5535 229.507 43.0598 226.189L50.0701 219.573C50.2512 219.402 50.4929 219.31 50.742 219.317C50.991 219.324 51.2271 219.43 51.3982 219.611C53.241 221.563 64.8104 233.824 66.5781 235.696C67.1062 236.255 67.3905 237.001 67.3683 237.77C67.346 238.539 67.0192 239.267 66.4597 239.795ZM66.6203 233.004L52.7638 218.321C52.2509 217.778 51.543 217.46 50.796 217.439C50.0489 217.417 49.324 217.693 48.7806 218.207L41.7693 224.824C41.0246 225.527 40.0307 225.905 39.0072 225.873C37.9837 225.842 37.0151 225.404 36.3151 224.656C35.9628 224.283 35.7736 223.784 35.7892 223.271C35.8048 222.758 36.0242 222.272 36.3987 221.92L46.1668 212.694C51.8238 207.339 60.7116 207.445 66.2393 212.934C71.767 218.422 71.9357 227.309 66.6203 233.004Z" fill="white"></path>
</g>
</g>
<circle cx="505.5" cy="229.5" r="43.5" transform="rotate(180 505.5 229.5)" fill="#5EDD78"></circle>
<g clip-path="url(#clip1_1_538)">
<mask id="mask1_1_538" style="mask-type:luminance" maskUnits="userSpaceOnUse" x="478" y="205" width="57" height="57">
<path d="M534.363 205H478.009V261.354H534.363V205Z" fill="white"></path>
</mask>
<g mask="url(#mask1_1_538)">
<path d="M529.917 211.998C526.954 208.85 522.859 207.01 518.537 206.884C514.215 206.759 510.021 208.358 506.879 211.329L506.166 212.002C499.992 205.454 489.678 205.15 483.13 211.324C476.582 217.498 476.278 227.812 482.452 234.36L484.058 236.061C483.38 237.631 483.596 239.443 484.625 240.808C485.653 242.173 487.335 242.882 489.031 242.663C488.744 244.157 489.192 245.698 490.236 246.804C491.281 247.911 492.793 248.448 494.301 248.248C494.014 249.742 494.462 251.282 495.506 252.388C496.55 253.495 498.062 254.032 499.57 253.832C499.196 255.86 500.169 257.899 501.98 258.886C503.792 259.872 506.032 259.583 507.534 258.169C512.894 253.108 512.726 253.361 513.232 252.508C514.8 253.28 516.665 253.127 518.086 252.11C519.507 251.093 520.254 249.378 520.03 247.645C521.524 247.925 523.061 247.473 524.165 246.429C525.27 245.385 525.808 243.875 525.612 242.368C527.653 242.743 529.701 241.756 530.68 239.927C531.659 238.097 531.343 235.845 529.899 234.356C535.846 228.093 535.854 218.271 529.917 211.998ZM486.336 239.939C485.239 238.773 485.292 236.939 486.454 235.839L491.338 231.227C492.506 230.148 494.325 230.211 495.416 231.367C496.507 232.524 496.464 234.343 495.319 235.446L490.435 240.058C489.27 241.155 487.436 241.103 486.336 239.939ZM491.606 245.524C490.508 244.359 490.561 242.524 491.724 241.423L496.609 236.812C497.773 235.713 499.608 235.766 500.707 236.931C501.806 238.096 501.753 239.931 500.588 241.03L495.704 245.642C494.538 246.738 492.705 246.683 491.606 245.519V245.524ZM496.875 251.108C495.778 249.942 495.832 248.108 496.994 247.008L501.879 242.397C503.051 241.367 504.827 241.45 505.899 242.584C506.97 243.717 506.953 245.496 505.859 246.608L500.975 251.22C499.811 252.319 497.975 252.267 496.875 251.103V251.108ZM506.244 256.811C505.491 257.522 504.415 257.777 503.423 257.48C502.43 257.183 501.671 256.379 501.432 255.371C501.193 254.363 501.51 253.304 502.264 252.593L507.148 247.98C508.316 246.902 510.134 246.964 511.225 248.12C512.316 249.277 512.273 251.096 511.128 252.199L506.244 256.811ZM528.46 239.795C527.901 240.324 527.155 240.609 526.386 240.587C525.617 240.565 524.889 240.237 524.362 239.676L511.846 226.414C511.49 226.037 510.895 226.02 510.518 226.376C510.14 226.732 510.123 227.327 510.479 227.704L522.998 240.965C523.709 241.718 523.965 242.794 523.668 243.787C523.371 244.779 522.567 245.538 521.559 245.777C520.551 246.016 519.492 245.7 518.781 244.946L506.263 231.684C506.033 231.439 505.689 231.337 505.363 231.414C505.036 231.492 504.776 231.737 504.68 232.059C504.583 232.381 504.666 232.729 504.896 232.973L517.411 246.232C518.399 247.279 518.469 248.892 517.576 250.02C516.682 251.148 515.096 251.449 513.851 250.726C514.046 249.385 513.657 248.024 512.783 246.988C511.908 245.951 510.632 245.339 509.277 245.305C508.244 245.278 508.619 245.669 508.646 244.636C508.683 243.369 508.215 242.139 507.345 241.217C506.475 240.295 505.275 239.757 504.008 239.721C502.975 239.688 503.346 240.096 503.377 239.051C503.414 237.784 502.945 236.554 502.075 235.632C501.205 234.711 500.005 234.172 498.738 234.136C497.698 234.107 498.076 234.52 498.107 233.466C498.157 231.537 497.043 229.766 495.282 228.976C493.521 228.186 491.458 228.532 490.051 229.853C483.335 236.192 485.652 234.007 485.152 234.48L483.82 233.071C478.358 227.277 478.627 218.154 484.421 212.692C490.214 207.23 499.338 207.499 504.8 213.292L497.107 220.557C496.378 221.256 495.949 222.211 495.91 223.221C495.816 227.079 501.554 229.507 505.06 226.189L512.07 219.573C512.251 219.402 512.493 219.31 512.742 219.317C512.991 219.324 513.227 219.43 513.398 219.611C515.241 221.563 526.81 233.824 528.578 235.696C529.106 236.255 529.39 237.001 529.368 237.77C529.346 238.539 529.019 239.267 528.46 239.795ZM528.62 233.004L514.764 218.321C514.251 217.778 513.543 217.46 512.796 217.439C512.049 217.417 511.324 217.693 510.781 218.207L503.769 224.824C503.025 225.527 502.031 225.905 501.007 225.873C499.984 225.842 499.015 225.404 498.315 224.656C497.963 224.283 497.774 223.784 497.789 223.271C497.805 222.758 498.024 222.272 498.399 221.92L508.167 212.694C513.824 207.339 522.712 207.445 528.239 212.934C533.767 218.422 533.936 227.309 528.62 233.004Z" fill="white"></path>
</g>
</g>
<circle cx="131.5" cy="472.5" r="43.5" transform="rotate(180 131.5 472.5)" fill="#5EDD78"></circle>
<g clip-path="url(#clip2_1_538)">
<mask id="mask2_1_538" style="mask-type:luminance" maskUnits="userSpaceOnUse" x="103" y="446" width="58" height="57">
<path d="M160.354 446H104V502.354H160.354V446Z" fill="white"></path>
</mask>
<g mask="url(#mask2_1_538)">
<path d="M159.541 480.826C159.05 480.28 158.38 479.928 157.651 479.833C156.923 479.738 156.185 479.906 155.57 480.308L152.84 482.037V463.901C153.253 464.105 153.727 464.149 154.171 464.027C154.615 463.904 154.998 463.622 155.248 463.235L156.292 461.633C156.564 461.212 156.659 460.7 156.555 460.209C156.452 459.719 156.158 459.289 155.739 459.013L136.549 446.461C136.086 446.16 135.546 446 134.994 446C134.441 446 133.901 446.16 133.438 446.461L128.42 449.746C128.417 449.25 128.218 448.775 127.866 448.425C127.514 448.075 127.038 447.879 126.541 447.879H122.784C122.286 447.879 121.808 448.077 121.456 448.429C121.104 448.781 120.906 449.259 120.906 449.757V454.66L114.251 459.013C113.831 459.288 113.538 459.718 113.434 460.209C113.331 460.7 113.426 461.212 113.698 461.633L114.74 463.234C114.875 463.444 115.051 463.625 115.256 463.766C115.462 463.908 115.694 464.006 115.938 464.057C116.068 464.084 116.2 464.098 116.333 464.098C116.617 464.092 116.897 464.02 117.149 463.889V480.961L115.143 482.056C114.453 482.433 113.68 482.63 112.894 482.63H106.818C106.07 482.63 105.354 482.927 104.825 483.456C104.297 483.984 104 484.701 104 485.448V492.975C104.001 493.718 104.295 494.43 104.818 494.957C105.341 495.485 106.051 495.785 106.794 495.793C108.822 495.804 111.996 495.839 113.479 495.822C113.967 495.808 114.454 495.885 114.916 496.048L133.784 502.129C134.503 502.36 135.267 502.414 136.011 502.287C136.756 502.16 137.459 501.855 138.06 501.398L159.151 485.377C159.486 485.117 159.765 484.79 159.97 484.418C160.174 484.045 160.3 483.635 160.34 483.212C160.38 482.789 160.332 482.362 160.2 481.958C160.068 481.554 159.855 481.181 159.573 480.863L159.541 480.826ZM122.784 449.757H126.541V450.978L122.784 453.431V449.757ZM116.314 462.211L115.281 460.586L134.466 448.036C134.623 447.934 134.807 447.879 134.994 447.879C135.181 447.879 135.365 447.934 135.522 448.036L154.718 460.609L153.665 462.219H153.657L135.509 450.346C135.356 450.245 135.176 450.191 134.993 450.191C134.809 450.191 134.629 450.245 134.476 450.346L116.314 462.211ZM119.028 462.701L134.994 452.255L150.961 462.701V483.226L147.477 485.432C147.413 484.659 147.089 483.93 146.559 483.364C146.028 482.798 145.322 482.427 144.555 482.313L142.508 481.989V472.299C142.508 471.551 142.211 470.835 141.683 470.306C141.155 469.778 140.438 469.481 139.691 469.481H130.298C129.551 469.481 128.834 469.778 128.306 470.306C127.778 470.835 127.481 471.551 127.481 472.299V479.607L123.264 478.938C122.07 478.755 120.848 478.96 119.78 479.525L119.028 479.936L119.028 462.701ZM140.63 481.691L129.359 479.907V472.299C129.359 472.05 129.458 471.811 129.634 471.635C129.81 471.458 130.049 471.36 130.298 471.36H139.691C139.94 471.36 140.179 471.458 140.355 471.635C140.531 471.811 140.63 472.05 140.63 472.299V481.691ZM158.006 483.888L136.925 499.903C136.564 500.176 136.142 500.359 135.695 500.435C135.249 500.511 134.791 500.478 134.36 500.34L115.49 494.26C114.843 494.051 114.167 493.944 113.487 493.943H113.477C112.002 493.943 108.83 493.925 106.808 493.914C106.561 493.911 106.325 493.811 106.152 493.635C105.978 493.459 105.881 493.222 105.881 492.975V485.448C105.881 485.199 105.98 484.96 106.156 484.784C106.332 484.608 106.571 484.509 106.82 484.509H112.894C113.995 484.508 115.077 484.232 116.044 483.706L120.666 481.182C121.375 480.809 122.184 480.673 122.975 480.794L144.266 484.169C144.661 484.23 145.018 484.438 145.267 484.752C145.515 485.065 145.636 485.46 145.606 485.859C145.575 486.258 145.395 486.631 145.102 486.903C144.809 487.174 144.424 487.326 144.024 487.326H125.602C125.353 487.326 125.114 487.425 124.938 487.602C124.762 487.778 124.663 488.017 124.663 488.266C124.663 488.515 124.762 488.754 124.938 488.93C125.114 489.106 125.353 489.205 125.602 489.205H129.983L135.537 493.425C135.915 493.71 136.371 493.874 136.845 493.894C137.318 493.914 137.786 493.789 138.187 493.537L156.585 481.89C156.824 481.734 157.109 481.666 157.392 481.699C157.675 481.732 157.937 481.864 158.132 482.071C158.14 482.08 158.148 482.089 158.156 482.098C158.269 482.223 158.356 482.37 158.41 482.529C158.464 482.689 158.485 482.858 158.471 483.026C158.457 483.194 158.409 483.357 158.329 483.506C158.249 483.655 158.14 483.785 158.008 483.89L158.006 483.888ZM141.517 489.205L137.182 491.95C137.105 491.998 137.015 492.022 136.924 492.018C136.833 492.014 136.745 491.983 136.672 491.929L133.088 489.205H141.517Z" fill="white"></path>
</g>
</g>
<circle cx="417.5" cy="472.5" r="43.5" transform="rotate(180 417.5 472.5)" fill="#5EDD78"></circle>
<path d="M420.626 471.833H426.219V477.333L434.142 471.833H440.015C442.066 471.833 443.93 469.689 443.93 467.545V451.139C443.93 449.088 442.066 447.597 440.015 447.597H416.151C414.101 447.597 412.236 449.088 412.236 451.139V454.122" stroke="white" stroke-width="1.86433" stroke-miterlimit="10" stroke-linecap="round" stroke-linejoin="round"></path>
<path d="M429.666 496.162C429.666 492.527 429.2 487.307 426.963 486.747C424.726 486.095 416.896 484.044 416.896 484.044L410.743 490.476L404.684 484.044C404.684 484.044 396.761 486.002 394.43 486.654C392.193 487.307 391.634 492.434 391.634 496.069" stroke="white" stroke-width="1.86433" stroke-miterlimit="10" stroke-linecap="round" stroke-linejoin="round"></path>
<path d="M418.667 462.977C417.642 458.037 412.887 457.291 410.65 457.291C407.854 457.291 403.379 457.944 402.634 463.723C402.074 468.291 404.125 474.07 405.71 476.028C407.388 478.172 408.972 479.291 411.116 479.291C413.074 479.291 414.379 478.358 416.243 475.748C417.735 473.231 419.506 467.079 418.667 462.977Z" stroke="white" stroke-width="1.86433" stroke-miterlimit="10" stroke-linecap="round" stroke-linejoin="round"></path>
<path d="M424.354 461.579V465.308H431.812V461.579" stroke="white" stroke-width="1.86433" stroke-miterlimit="10" stroke-linecap="round" stroke-linejoin="round"></path>
<path d="M431.812 457.85V455.054" stroke="white" stroke-width="1.86433" stroke-miterlimit="10" stroke-linecap="round" stroke-linejoin="round"></path>
<path d="M422.301 460.367L428.08 454.588L433.86 460.367" stroke="white" stroke-width="1.86433" stroke-miterlimit="10" stroke-linecap="round" stroke-linejoin="round"></path>
<circle cx="274.5" cy="43.5" r="43.5" transform="rotate(180 274.5 43.5)" fill="#5EDD78"></circle>
<path d="M277.626 42.8331H283.219V48.3329L291.142 42.8331H297.015C299.066 42.8331 300.93 40.6891 300.93 38.5451V22.1388C300.93 20.088 299.066 18.5966 297.015 18.5966H273.151C271.101 18.5966 269.236 20.088 269.236 22.1388V25.1218" stroke="white" stroke-width="1.86433" stroke-miterlimit="10" stroke-linecap="round" stroke-linejoin="round"></path>
<path d="M286.667 67.1623C286.667 63.5269 286.2 58.3067 283.963 57.7474C281.726 57.0948 273.896 55.0441 273.896 55.0441L267.743 61.476L261.684 55.0441C261.684 55.0441 253.761 57.0016 251.43 57.6542C249.193 58.3067 248.634 63.4337 248.634 67.0691" stroke="white" stroke-width="1.86433" stroke-miterlimit="10" stroke-linecap="round" stroke-linejoin="round"></path>
<path d="M275.667 33.9775C274.642 29.0371 269.887 28.2913 267.65 28.2913C264.854 28.2913 260.379 28.9439 259.634 34.7233C259.074 39.2909 261.125 45.0704 262.71 47.0279C264.388 49.1719 265.972 50.2905 268.116 50.2905C270.074 50.2905 271.379 49.3584 273.243 46.7484C274.735 44.2315 276.506 38.0791 275.667 33.9775Z" stroke="white" stroke-width="1.86433" stroke-miterlimit="10" stroke-linecap="round" stroke-linejoin="round"></path>
<path d="M281.354 32.579V36.3076H288.812V32.579" stroke="white" stroke-width="1.86433" stroke-miterlimit="10" stroke-linecap="round" stroke-linejoin="round"></path>
<path d="M288.812 28.8503V26.0539" stroke="white" stroke-width="1.86433" stroke-miterlimit="10" stroke-linecap="round" stroke-linejoin="round"></path>
<path d="M279.301 31.3672L285.08 25.5878L290.86 31.3672" stroke="white" stroke-width="1.86433" stroke-miterlimit="10" stroke-linecap="round" stroke-linejoin="round"></path>
<path d="M72.8395 154.919L71.2883 153.973L75.7478 146.664L77.299 147.61L75.5826 150.423L83.6414 155.34L82.6147 157.023L74.556 152.106L72.8395 154.919ZM87.3952 149.87C86.1481 151.76 83.899 152.176 81.9326 150.878C79.9404 149.563 79.4221 147.357 80.6522 145.493C81.9078 143.591 83.9776 143.223 85.9569 144.529L86.4325 144.843L83.2894 149.633C84.4839 150.255 85.4397 150.037 86.1269 148.996C86.6953 148.135 86.7344 147.349 86.2491 146.771L87.2078 145.318C88.4177 146.504 88.4896 148.213 87.3952 149.87ZM81.9459 146.329C81.3351 147.254 81.4631 148.151 82.3124 148.933L84.4163 145.745C83.5423 145.168 82.5652 145.391 81.9459 146.329ZM86.7382 143.61C84.8214 142.239 84.3729 140.007 85.6805 138.178C86.8896 136.487 88.6531 136.006 90.2604 136.909L89.1677 138.437C88.3408 138.111 87.6103 138.365 87.0908 139.091C86.3923 140.069 86.6657 141.248 87.8308 142.081C88.9959 142.914 90.1524 142.832 90.851 141.855C91.3973 141.091 91.4066 140.284 90.8465 139.637L91.9481 138.096C93.2545 139.314 93.3844 141.224 92.229 142.84C90.8856 144.72 88.705 145.016 86.7382 143.61ZM96.2168 137.123L95.061 138.605L86.0278 131.556L87.193 130.063L91.0055 133.038C90.7163 132.207 90.8894 131.209 91.562 130.347C92.7178 128.865 94.259 128.818 95.8131 130.03L99.5041 132.91L98.3483 134.392L95.0094 131.786C94.0017 131 93.1276 131.119 92.5403 131.872C91.8108 132.807 92.0401 133.865 92.9386 134.566L96.2168 137.123ZM101.883 130.046L100.669 131.48L94.8633 126.564L95.9878 125.236L96.8395 125.755C96.5604 124.893 96.8166 123.9 97.4834 123.112C98.7174 121.655 100.259 121.669 101.764 122.943L105.336 125.968L104.122 127.402L100.89 124.665C99.9149 123.839 99.0367 123.923 98.4098 124.663C97.6634 125.545 97.8168 126.603 98.7571 127.399L101.883 130.046ZM100.323 117.822C99.8948 118.307 99.1775 118.351 98.7043 117.933C98.2312 117.515 98.1985 116.808 98.6268 116.323C99.0347 115.862 99.7405 115.807 100.214 116.225C100.687 116.643 100.731 117.361 100.323 117.822ZM106.544 124.573L100.843 119.536L102.088 118.128L107.788 123.166L106.544 124.573ZM106.017 119.433C104.306 117.813 104.167 115.54 105.713 113.907C107.142 112.397 108.955 112.162 110.423 113.276L109.132 114.641C108.357 114.205 107.599 114.356 106.985 115.005C106.159 115.877 106.269 117.083 107.309 118.068C108.349 119.052 109.506 119.13 110.331 118.257C110.977 117.575 111.097 116.776 110.631 116.059L111.933 114.684C113.06 116.069 112.927 117.979 111.562 119.422C109.974 121.099 107.773 121.095 106.017 119.433ZM116.295 114.283L114.965 115.588L106.939 107.411L108.269 106.106L113.199 111.128L113.076 106.782L114.758 105.132L114.806 109.314L120.043 110.604L118.504 112.114L114.843 111.22L114.86 112.821L116.295 114.283ZM117.55 98.2675L117.972 100.968L116.948 101.903L116.265 99.4405L117.55 98.2675ZM122.516 108.621C121.322 109.711 119.961 109.682 118.995 108.624C118.051 107.589 118.21 106.255 119.447 104.938L121.017 103.277L120.902 103.152C120.207 102.39 119.472 102.498 118.766 103.141C117.947 103.889 117.804 104.645 118.343 105.237L117.16 106.316C116.05 105.099 116.324 103.389 117.848 101.998C119.361 100.618 121.041 100.586 122.464 102.144L125.578 105.557L124.361 106.667L123.5 105.93C123.791 106.729 123.392 107.822 122.516 108.621ZM122.016 107.16C122.869 106.381 122.948 105.371 122.159 104.506L121.889 104.211L120.801 105.371C120.009 106.239 119.939 106.825 120.354 107.28C120.821 107.792 121.391 107.731 122.016 107.16ZM132.66 99.8144C130.949 101.201 128.866 100.807 127.383 98.9762C125.89 97.1334 125.9 94.9447 127.683 93.5003C128.509 92.8314 129.52 92.587 130.366 92.8729L127.332 89.1275L128.78 87.9545L135.992 96.8572L134.652 97.943L133.81 97.0991C134.003 98.072 133.557 99.0873 132.66 99.8144ZM131.897 98.2124C132.914 97.3884 132.981 96.1253 132.118 95.0604C131.256 93.9954 129.996 93.7867 128.979 94.6107C127.962 95.4347 127.951 96.6926 128.804 97.7456C129.657 98.7986 130.88 99.0364 131.897 98.2124ZM132.728 87.8218C132.215 88.2147 131.502 88.1197 131.119 87.6181C130.735 87.1166 130.839 86.4164 131.353 86.0235C131.843 85.6493 132.546 85.7321 132.929 86.2337C133.313 86.7352 133.218 87.4476 132.728 87.8218ZM137.529 95.6467L132.908 89.6035L134.401 88.4623L139.022 94.5055L137.529 95.6467ZM142.529 92.1803C141.22 93.1291 139.871 92.9467 139.03 91.7869C138.208 90.6521 138.516 89.345 139.894 88.1755L141.64 86.701L141.54 86.5638C140.935 85.7283 140.192 85.753 139.419 86.3133C138.521 86.9639 138.294 87.6994 138.763 88.3479L137.466 89.2876C136.5 87.9533 136.964 86.2852 138.635 85.0744C140.294 83.8726 141.967 84.0295 143.205 85.7379L145.916 89.479L144.582 90.4459L143.81 89.6169C144.009 90.4426 143.49 91.4845 142.529 92.1803ZM142.197 90.6716C143.132 89.9939 143.324 88.999 142.637 88.0512L142.402 87.727L141.19 88.7575C140.306 89.5315 140.17 90.1053 140.531 90.6041C140.938 91.1653 141.511 91.1685 142.197 90.6716ZM144.881 85.3551C143.657 83.506 143.946 81.32 145.756 80.1214C146.706 79.4923 147.715 79.3974 148.538 79.8314L148.049 78.8987L149.5 77.9381L153.487 83.9606C154.89 86.0794 154.494 88.2436 152.44 89.6037C150.616 90.8109 148.682 90.5953 147.367 89.0278L148.934 87.9907C149.581 88.7445 150.533 88.816 151.496 88.1784C152.575 87.4643 152.818 86.3247 152.121 85.2717L151.424 84.2187C151.417 85.073 150.88 85.9639 149.968 86.5675C148.17 87.7576 146.096 87.1914 144.881 85.3551ZM146.435 84.271C147.14 85.3368 148.348 85.6824 149.375 85.0023C150.454 84.2882 150.62 83.0885 149.889 81.9842C149.175 80.9056 148.027 80.5943 146.935 81.3169C145.895 82.0055 145.746 83.2308 146.435 84.271ZM156.95 82.2712L155.342 83.2428L151.408 76.7313L152.897 75.8314L153.539 76.5954C153.549 75.6895 154.109 74.8294 154.992 74.2958C156.627 73.3083 158.083 73.8136 159.103 75.5008L161.524 79.5078L159.916 80.4794L157.726 76.8546C157.065 75.7606 156.206 75.5598 155.375 76.0615C154.387 76.6588 154.194 77.7106 154.831 78.765L156.95 82.2712ZM160.885 75.4588C159.739 73.3825 160.447 71.1273 162.51 69.9888C164.573 68.8502 166.858 69.4534 168.004 71.5298C169.15 73.6061 168.442 75.8613 166.379 76.9998C164.317 78.1383 162.031 77.5352 160.885 75.4588ZM162.53 74.551C163.2 75.7644 164.436 76.1553 165.568 75.5302C166.701 74.9051 167.029 73.6511 166.359 72.4376C165.689 71.2242 164.454 70.8333 163.321 71.4584C162.188 72.0835 161.86 73.3375 162.53 74.551ZM169.606 72.3875L171.201 71.5828C171.513 72.167 172.14 72.3162 172.91 71.9277C173.694 71.5323 173.961 71.001 173.711 70.5061C173.537 70.1623 173.234 70.005 172.559 70.1728L171.19 70.5015C169.828 70.844 168.945 70.5648 168.397 69.4787C167.724 68.145 168.449 66.7787 170.017 65.9878C171.543 65.2178 173.018 65.5774 173.698 66.8904L172.103 67.6951C171.798 67.1246 171.225 66.9476 170.579 67.2737C169.919 67.6067 169.687 68.1034 169.943 68.6121C170.138 68.9971 170.565 69.0919 171.212 68.9381L172.581 68.6093C173.854 68.2948 174.695 68.5259 175.223 69.5708C175.916 70.9457 175.178 72.3878 173.5 73.2341C171.809 74.0874 170.279 73.7211 169.606 72.3875ZM179.885 69.8979L178.185 70.6978L175.615 65.2354L174.291 65.8583L173.622 64.4369L174.946 63.8141L173.937 61.6682L175.637 60.8683L176.646 63.0142L177.984 62.3848L178.653 63.8061L177.315 64.4355L179.885 69.8979ZM179.39 60.0743C178.8 60.3401 178.128 60.0856 177.868 59.51C177.609 58.9343 177.87 58.2762 178.459 58.0105C179.021 57.7573 179.687 57.9978 179.946 58.5734C180.206 59.149 179.951 59.8212 179.39 60.0743ZM182.286 68.7859L179.16 61.8502L180.873 61.0782L183.999 68.0138L182.286 68.7859ZM187.529 66.515L185.808 67.2304L181.409 56.6511L183.129 55.9356L185.832 62.4339L187.338 58.3552L189.513 57.4505L187.999 61.3492L192.378 64.4986L190.387 65.3264L187.323 63.1315L186.742 64.6237L187.529 66.515ZM195.414 63.588C193.898 64.1507 192.647 63.6129 192.149 62.2702C191.661 60.9564 192.309 59.7798 193.95 59.0229L196.028 58.071L195.969 57.9122C195.61 56.9449 194.888 56.7694 193.992 57.1016C192.953 57.4874 192.536 58.1349 192.815 58.8857L191.313 59.4429C190.74 57.8981 191.635 56.4159 193.57 55.6979C195.49 54.9852 197.06 55.5853 197.794 57.5633L199.402 61.8946L197.857 62.468L197.336 61.4622C197.306 62.3111 196.526 63.1754 195.414 63.588ZM195.499 62.0454C196.582 61.6435 197.034 60.7366 196.626 59.6394L196.487 59.264L195.043 59.9314C193.983 60.4397 193.698 60.956 193.913 61.5336C194.154 62.1833 194.705 62.3401 195.499 62.0454ZM393.91 76.7572C392.202 79.7191 389.055 80.6776 386.253 79.0625C383.464 77.4551 382.735 74.2795 384.45 71.3043C386.158 68.3424 389.292 67.3762 392.08 68.9836C394.869 70.591 395.625 73.7819 393.91 76.7572ZM392.109 75.7189C393.308 73.6375 392.922 71.6552 391.134 70.6247C389.347 69.5941 387.438 70.2535 386.238 72.3349C385.038 74.4162 385.424 76.3985 387.212 77.4291C389 78.4597 390.924 77.7736 392.109 75.7189ZM394.101 78.9976C395.371 77.0127 397.577 76.4497 399.471 77.6612C401.223 78.7814 401.794 80.5178 400.975 82.1695L399.392 81.1571C399.675 80.3145 399.384 79.598 398.632 79.1168C397.62 78.4695 396.456 78.8034 395.684 80.0099C394.912 81.2164 395.054 82.3672 396.065 83.0144C396.857 83.5206 397.664 83.4882 398.28 82.8956L399.876 83.9162C398.727 85.2837 396.826 85.5119 395.153 84.4415C393.207 83.1968 392.798 81.0343 394.101 78.9976ZM402.214 89.1519C400.354 87.8617 399.99 85.6037 401.332 83.6676C402.693 81.7062 404.91 81.2386 406.745 82.5112C408.618 83.8102 408.938 85.888 407.587 87.8367L407.262 88.3049L402.546 85.0526C401.896 86.2326 402.092 87.1931 403.117 87.904C403.965 88.492 404.75 88.5492 405.339 88.0773L406.769 89.0691C405.556 90.2514 403.846 90.284 402.214 89.1519ZM405.88 83.7854C404.969 83.1535 404.07 83.2609 403.268 84.0919L406.407 86.2686C407.003 85.4081 406.804 84.4261 405.88 83.7854ZM408.056 93.0906L406.553 91.9624L411.122 85.8792L412.513 86.9242L412.045 87.8048C412.889 87.4758 413.896 87.6736 414.721 88.2932C416.248 89.4399 416.324 90.98 415.14 92.5562L412.329 96.2996L410.826 95.1714L413.369 91.785C414.137 90.763 414.002 89.8912 413.226 89.3086C412.303 88.615 411.255 88.83 410.516 89.8151L408.056 93.0906ZM421.046 92.3843L421.496 89.6476L422.628 90.5747L422.353 92.3201L423.998 91.697L425.13 92.6241L422.535 93.6042L421.046 92.3843ZM416.285 99.7516C414.533 98.317 414.351 96.0371 415.844 94.2144C417.357 92.3679 419.604 92.0789 421.331 93.494C423.094 94.9384 423.248 97.0351 421.745 98.8697L421.384 99.3105L416.943 95.692C416.201 96.8162 416.319 97.7893 417.284 98.5798C418.083 99.2337 418.86 99.3534 419.486 98.9301L420.832 100.033C419.528 101.115 417.821 101.011 416.285 99.7516ZM420.367 94.6951C419.51 93.9924 418.605 94.0276 417.74 94.792L420.694 97.2123C421.358 96.4023 421.237 95.4075 420.367 94.6951ZM421.795 104.143L420.386 102.899L425.422 97.1965L426.726 98.3483L426.189 99.1891C427.057 98.9279 428.045 99.2047 428.818 99.8876C430.25 101.152 430.204 102.693 428.899 104.17L425.8 107.68L424.392 106.436L427.195 103.262C428.041 102.303 427.975 101.424 427.248 100.782C426.382 100.017 425.321 100.149 424.506 101.072L421.795 104.143ZM436.833 103.169L434.186 103.82L433.16 102.865L435.559 101.984L436.833 103.169ZM427.166 108.92L432.35 103.351L433.725 104.632L428.541 110.2L427.166 108.92ZM434.411 115.992L437.738 108.514L439.138 109.945L437.566 113.337C437.142 114.203 436.764 114.94 436.532 115.297C436.948 115.04 437.714 114.678 438.535 114.327L442.003 112.873L443.36 114.26L435.704 117.313L434.411 115.992ZM439.764 121.917C438.676 120.721 438.708 119.36 439.767 118.396C440.804 117.453 442.137 117.615 443.452 118.855L445.111 120.427L445.236 120.313C446 119.619 445.893 118.883 445.251 118.177C444.505 117.356 443.748 117.211 443.156 117.75L442.078 116.565C443.297 115.457 445.007 115.734 446.395 117.261C447.773 118.776 447.802 120.456 446.241 121.876L442.823 124.984L441.715 123.765L442.453 122.906C441.655 123.195 440.562 122.795 439.764 121.917ZM441.227 121.42C442.004 122.274 443.014 122.355 443.88 121.568L444.176 121.298L443.017 120.207C442.15 119.414 441.565 119.343 441.109 119.757C440.596 120.223 440.657 120.793 441.227 121.42ZM445.891 128.899C444.476 127.211 444.834 125.122 446.639 123.608C448.457 122.084 450.645 122.058 452.12 123.816C452.803 124.63 453.064 125.637 452.793 126.487L456.486 123.39L457.683 124.818L448.904 132.18L447.796 130.859L448.625 130.002C447.656 130.212 446.633 129.784 445.891 128.899ZM447.48 128.109C448.321 129.112 449.585 129.157 450.635 128.277C451.685 127.396 451.873 126.133 451.031 125.13C450.19 124.127 448.932 124.137 447.894 125.008C446.856 125.879 446.639 127.106 447.48 128.109ZM92.351 404.671L93.4928 406.277L84.3163 412.798L81.8275 409.296C80.3467 407.212 80.536 405.245 82.3436 403.961C83.5739 403.086 84.8629 403.039 86.0695 403.807L88.5955 399.386L89.8444 401.143L87.5234 405.135L88.9239 407.106L92.351 404.671ZM84.6056 410.175L87.5054 408.114L86.1584 406.218C85.4359 405.202 84.4679 404.983 83.539 405.643C82.6226 406.294 82.5361 407.262 83.2586 408.279L84.6056 410.175ZM86.3411 395.548C87.5732 397.448 87.0541 399.675 85.0774 400.957C83.0749 402.257 80.846 401.848 79.6307 399.975C78.3902 398.063 78.8814 396.019 80.871 394.728L81.3491 394.418L84.4798 399.216C85.5284 398.37 85.7113 397.407 85.0324 396.361C84.4709 395.495 83.7662 395.145 83.0416 395.358L82.0945 393.898C83.6659 393.264 85.2599 393.882 86.3411 395.548ZM80.9142 399.124C81.5177 400.054 82.3903 400.296 83.447 399.831L81.3684 396.627C80.4899 397.197 80.3024 398.181 80.9142 399.124ZM82.4363 389.323C83.2687 390.709 82.9706 392.038 81.7427 392.775C80.5412 393.496 79.2655 393.077 78.2192 391.603L76.9007 389.737L76.7555 389.824C75.8709 390.355 75.8315 391.097 76.323 391.916C76.8937 392.866 77.6069 393.157 78.2935 392.744L79.1179 394.117C77.7052 394.966 76.0834 394.359 75.0211 392.589C73.9668 390.833 74.2674 389.18 76.0762 388.094L80.0372 385.716L80.8854 387.129L79.9929 387.826C80.8327 387.699 81.8259 388.306 82.4363 389.323ZM80.9045 389.524C80.31 388.534 79.3354 388.257 78.3319 388.859L77.9887 389.065L78.9108 390.362C79.6057 391.31 80.1656 391.495 80.6937 391.177C81.2879 390.821 81.3405 390.25 80.9045 389.524ZM78.1891 382.466L79.0983 384.092L69.0973 389.683L68.1881 388.056L78.1891 382.466ZM68.7534 384.235C69.0597 384.805 68.8528 385.493 68.2967 385.792C67.7406 386.091 67.0659 385.877 66.7596 385.307C66.4678 384.765 66.6612 384.084 67.2173 383.785C67.7734 383.486 68.4616 383.693 68.7534 384.235ZM77.2414 380.738L70.5411 384.341L69.6513 382.686L76.3516 379.083L77.2414 380.738ZM74.2668 375.064L75.1251 376.735L69.7551 379.493L70.4234 380.794L69.0261 381.512L68.3578 380.21L66.2481 381.294L65.3898 379.623L67.4994 378.539L66.824 377.224L68.2213 376.506L68.8967 377.822L74.2668 375.064ZM72.2785 371L73.0848 372.697L66.2134 375.962L65.4666 374.39L66.2907 373.828C65.3904 373.727 64.5904 373.084 64.1476 372.152C63.3281 370.427 63.9762 369.028 65.7566 368.182L69.9852 366.173L70.7915 367.87L66.9663 369.687C65.8118 370.236 65.5264 371.071 65.9428 371.947C66.4384 372.99 67.4658 373.286 68.5785 372.758L72.2785 371ZM58.0651 365.928L60.752 366.383L61.3136 367.667L58.7626 367.523L58.0651 365.928ZM69.2208 364.494L62.251 367.543L61.498 365.822L68.4678 362.773L69.2208 364.494ZM65.4889 355.381L66.1453 357.142L59.017 359.8L58.4144 358.183L59.1976 357.727C58.4714 357.587 57.7407 357.038 57.3587 356.013C56.9552 354.931 57.2094 353.981 57.892 353.3C56.935 353.246 56.0891 352.608 55.6856 351.525C55.04 349.794 55.7239 348.454 57.3689 347.841L62.0297 346.103L62.6806 347.849L58.4816 349.415C57.4571 349.797 57.1276 350.544 57.4396 351.381C57.757 352.232 58.5475 352.677 59.7163 352.241L63.7566 350.735L64.4129 352.496L60.1995 354.066C59.2038 354.438 58.869 355.171 59.181 356.008C59.493 356.844 60.2942 357.318 61.4486 356.888L65.4889 355.381ZM60.6051 341.054C61.2836 343.213 60.1871 345.22 57.9392 345.927C55.6619 346.642 53.6237 345.652 52.9544 343.522C52.2712 341.347 53.2918 339.509 55.5544 338.799L56.098 338.628L57.8298 344.089C59.0665 343.555 59.5006 342.676 59.1267 341.486C58.8174 340.501 58.2323 339.975 57.4772 339.986L56.9556 338.326C58.6392 338.136 60.0096 339.158 60.6051 341.054ZM54.419 343.046C54.7513 344.103 55.5274 344.57 56.67 344.405L55.5252 340.761C54.5262 341.075 54.082 341.973 54.419 343.046ZM58.2739 333.103C58.8518 335.228 57.6512 336.975 55.3776 337.593C53.0891 338.216 51.0908 337.323 50.4886 335.109C50.2097 334.084 50.3941 333.06 50.997 332.401L46.3457 333.666L45.8567 331.868L56.9127 328.861L57.3653 330.525L56.2534 330.956C57.2217 331.171 57.9708 331.989 58.2739 333.103ZM56.5004 333.155C56.1569 331.892 55.0281 331.321 53.7056 331.68C52.383 332.04 51.684 333.108 52.0275 334.371C52.371 335.634 53.5174 336.152 54.8251 335.797C56.1328 335.441 56.844 334.418 56.5004 333.155ZM47.3292 328.219C47.4825 328.847 47.1093 329.461 46.4959 329.611C45.8825 329.761 45.2833 329.384 45.1299 328.756C44.9839 328.157 45.3422 327.547 45.9556 327.397C46.569 327.247 47.1832 327.62 47.3292 328.219ZM56.4238 326.967L49.0331 328.77L48.5877 326.945L55.9784 325.141L56.4238 326.967ZM55.2832 320.992C55.6137 322.575 54.8956 323.731 53.4937 324.024C52.1219 324.311 51.0548 323.495 50.5508 321.76L49.9191 319.563L49.7533 319.598C48.7433 319.809 48.4622 320.497 48.6573 321.431C48.884 322.517 49.4622 323.025 50.2461 322.862L50.5735 324.429C48.9605 324.766 47.6282 323.66 47.2064 321.64C46.7877 319.635 47.6149 318.172 49.6801 317.741L54.2026 316.797L54.5394 318.41L53.4673 318.775C54.3022 318.931 55.0408 319.831 55.2832 320.992ZM53.7704 320.678C53.5343 319.548 52.7048 318.966 51.5591 319.205L51.1672 319.287L51.612 320.814C51.9568 321.938 52.425 322.297 53.0279 322.171C53.7063 322.029 53.9435 321.507 53.7704 320.678ZM50.1713 316.078C47.8499 316.482 45.9449 315.234 45.5599 313.019C45.204 310.97 46.0993 309.377 47.8706 308.866L48.1923 310.717C47.3795 311.077 47.0476 311.776 47.2006 312.656C47.4062 313.839 48.4385 314.472 49.8496 314.227C51.2606 313.982 52.0141 313.101 51.8084 311.917C51.6476 310.992 51.079 310.418 50.2254 310.364L49.9011 308.497C51.6855 308.422 53.1372 309.67 53.4774 311.627C53.8729 313.903 52.5534 315.664 50.1713 316.078ZM52.2049 303.236C52.4987 305.481 51.0708 307.267 48.7345 307.573C46.3677 307.883 44.532 306.555 44.2421 304.341C43.9463 302.081 45.2701 300.447 47.6216 300.14L48.1866 300.066L48.9455 305.744C50.2559 305.433 50.8359 304.642 50.6739 303.405C50.54 302.382 50.0551 301.763 49.3094 301.643L49.0835 299.917C50.7746 300.022 51.9471 301.266 52.2049 303.236ZM45.7671 304.125C45.911 305.225 46.5945 305.819 47.7484 305.854L47.2527 302.067C46.2144 302.203 45.6212 303.011 45.7671 304.125Z" fill="black"></path>
<path d="M236.987 503.972L230.101 502.76L232.052 491.673L238.938 492.885L238.623 494.674L233.678 493.805L233.177 496.656L237.605 497.435L237.304 499.149L232.875 498.37L232.358 501.312L237.302 502.182L236.987 503.972ZM240.134 504.449L238.015 504.147L241.132 500.827L239.088 496.616L241.253 496.924L242.55 499.722L244.515 497.389L246.604 497.686L243.5 501.133L245.455 505.207L243.321 504.903L242.074 502.19L240.134 504.449ZM246.29 508.845L247.407 497.767L249.139 497.941L249.145 499.103C249.693 498.276 250.74 497.871 251.889 497.987C254.019 498.201 255.273 499.891 255.033 502.266C254.795 504.626 253.335 506.212 251.083 505.985C249.949 505.871 249.013 505.327 248.615 504.513L248.16 509.033L246.29 508.845ZM248.91 501.742C248.773 503.105 249.521 504.125 250.808 504.255C252.126 504.387 253.003 503.516 253.139 502.168C253.275 500.82 252.591 499.775 251.273 499.643C249.986 499.513 249.048 500.378 248.91 501.742ZM259.517 506.676C257.258 506.531 255.781 504.784 255.932 502.433C256.086 500.051 257.744 498.507 259.972 498.65C262.247 498.797 263.593 500.411 263.441 502.778L263.404 503.347L257.686 502.994C257.738 504.339 258.402 505.061 259.646 505.141C260.676 505.208 261.378 504.852 261.64 504.143L263.376 504.255C262.947 505.894 261.499 506.804 259.517 506.676ZM259.889 500.188C258.782 500.117 258.067 500.672 257.81 501.798L261.621 502.043C261.688 500.998 261.01 500.26 259.889 500.188ZM269.7 499.292L269.645 501.031L268.952 501.01C267.598 500.967 266.729 501.664 266.682 503.142L266.566 506.836L264.688 506.777L264.927 499.189L266.697 499.244L266.77 500.356C267.117 499.612 267.856 499.126 268.872 499.158C269.134 499.166 269.394 499.205 269.7 499.292ZM273.619 506.976L271.74 506.96L271.791 500.923L270.328 500.911L270.342 499.34L271.805 499.353L271.825 496.981L273.704 496.997L273.683 499.368L275.162 499.381L275.148 500.952L273.67 500.939L273.619 506.976ZM278.143 506.923L276.265 506.967L276.087 499.362L277.827 499.321L278.004 500.303C278.463 499.522 279.377 499.054 280.408 499.03C282.317 498.985 283.33 500.148 283.376 502.118L283.486 506.799L281.607 506.842L281.508 502.609C281.479 501.331 280.833 500.73 279.863 500.752C278.708 500.779 278.019 501.596 278.048 502.828L278.143 506.923ZM287.954 495.794L286.574 498.143L285.174 498.212L286.216 495.879L287.954 495.794ZM285.329 506.731L284.957 499.132L286.833 499.04L287.206 506.639L285.329 506.731ZM292.49 503.993L294.269 503.829C294.345 504.487 294.873 504.856 295.732 504.777C296.606 504.697 297.049 504.3 296.998 503.748C296.963 503.365 296.738 503.107 296.05 503.016L294.655 502.819C293.262 502.638 292.543 502.055 292.432 500.843C292.295 499.356 293.471 498.351 295.219 498.19C296.921 498.033 298.161 498.909 298.312 500.38L296.533 500.543C296.459 499.901 295.991 499.526 295.271 499.592C294.534 499.66 294.136 500.037 294.188 500.604C294.228 501.034 294.591 501.279 295.249 501.373L296.643 501.569C297.943 501.744 298.641 502.267 298.748 503.433C298.889 504.966 297.673 506.037 295.802 506.209C293.916 506.383 292.627 505.48 292.49 503.993ZM302.291 494.481L301.065 496.915L299.673 497.074L300.562 494.679L302.291 494.481ZM300.38 505.565L299.516 498.007L301.383 497.793L302.247 505.352L300.38 505.565ZM306.152 496.283L305.78 493.52L307.321 493.312L307.281 496.13L306.152 496.283ZM306.737 504.766L304.875 505.017L304.068 499.035L302.618 499.23L302.408 497.673L303.858 497.478L303.541 495.128L305.403 494.876L305.72 497.227L307.185 497.029L307.395 498.586L305.93 498.783L306.737 504.766ZM459.592 415.815L450.569 409.083L453.249 405.491C454.575 403.713 456.311 403.318 457.817 404.441C458.817 405.187 459.201 406.166 458.924 407.285C459.941 406.564 461.016 406.617 462.066 407.4C463.609 408.551 463.708 410.297 462.318 412.161L459.592 415.815ZM454.542 406.667L453.143 408.543L455.599 410.376L457.026 408.463C457.671 407.599 457.573 406.777 456.771 406.178C455.994 405.598 455.205 405.779 454.542 406.667ZM458.433 409.359L456.932 411.371L459.376 413.194L460.877 411.182C461.54 410.293 461.476 409.477 460.662 408.87C459.897 408.299 459.087 408.482 458.433 409.359ZM467.475 405.275C466.199 407.145 463.944 407.526 461.998 406.198C460.026 404.853 459.542 402.639 460.801 400.795C462.085 398.912 464.161 398.576 466.12 399.913L466.59 400.234L463.373 404.974C464.558 405.615 465.517 405.412 466.22 404.382C466.802 403.53 466.853 402.744 466.377 402.158L467.358 400.721C468.549 401.926 468.595 403.635 467.475 405.275ZM462.081 401.65C461.456 402.566 461.57 403.464 462.407 404.259L464.56 401.105C463.695 400.514 462.715 400.721 462.081 401.65ZM473.202 396.159L469.898 401.339L468.6 400.511L466.846 394.899L464.808 398.093L463.484 397.248L466.789 392.067L468.1 392.904L469.808 398.56L471.878 395.314L473.202 396.159ZM477.038 396.631L467.435 390.996L468.316 389.495L469.375 389.974C468.851 389.131 468.92 388.01 469.504 387.014C470.587 385.168 472.646 384.733 474.705 385.941C476.75 387.141 477.583 389.13 476.437 391.082C475.861 392.065 474.977 392.689 474.071 392.711L477.989 395.011L477.038 396.631ZM471.675 391.288C472.857 391.981 474.096 391.726 474.75 390.61C475.421 389.468 474.995 388.307 473.826 387.622C472.657 386.936 471.423 387.122 470.752 388.264C470.098 389.38 470.493 390.594 471.675 391.288ZM480.581 383.705C479.507 385.698 477.304 386.313 475.23 385.196C473.129 384.064 472.416 381.913 473.475 379.947C474.555 377.94 476.584 377.389 478.672 378.514L479.174 378.784L476.47 383.835C477.716 384.348 478.648 384.046 479.24 382.948C479.729 382.039 479.698 381.253 479.163 380.72L479.988 379.188C481.299 380.261 481.523 381.956 480.581 383.705ZM474.838 380.664C474.312 381.64 474.519 382.521 475.435 383.224L477.246 379.862C476.324 379.365 475.371 379.674 474.838 380.664ZM476.2 373.191L473.433 373.383L474.075 372.068L475.836 371.934L474.851 370.477L475.492 369.162L477.044 371.461L476.2 373.191ZM479.193 377.769C477.075 376.736 476.262 374.609 477.248 372.588C478.159 370.72 479.819 369.953 481.553 370.576L480.73 372.265C479.86 372.08 479.182 372.452 478.79 373.255C478.264 374.335 478.729 375.453 480.016 376.081C481.304 376.708 482.43 376.436 482.957 375.356C483.369 374.512 483.244 373.714 482.584 373.17L483.415 371.467C484.905 372.451 485.351 374.313 484.48 376.099C483.467 378.175 481.366 378.829 479.193 377.769ZM487.269 369.703L486.503 371.419L479.556 368.318L480.266 366.729L481.229 366.99C480.72 366.24 480.689 365.214 481.11 364.272C481.888 362.528 483.373 362.112 485.173 362.915L489.448 364.824L488.682 366.539L484.815 364.813C483.647 364.292 482.828 364.617 482.432 365.503C481.961 366.558 482.404 367.531 483.529 368.033L487.269 369.703ZM482.074 354.253L483.632 356.5L483.118 357.787L481.429 355.87L482.074 354.253ZM493.133 365.183L491.674 364.601L492.091 363.557C492.365 362.87 492.378 362.378 491.669 361.747L491.219 361.335L482.717 361.242L483.454 359.397L489.328 359.635L484.944 355.664L485.663 353.862L492.921 360.771C494.025 361.825 494.272 362.786 493.809 363.944C493.615 364.431 493.387 364.837 493.133 365.183ZM497.864 352.912L487.316 349.348L487.873 347.7L489.006 347.953C488.323 347.234 488.161 346.123 488.531 345.029C489.216 343.001 491.143 342.156 493.405 342.92C495.652 343.679 496.872 345.457 496.147 347.602C495.782 348.681 495.044 349.472 494.162 349.678L498.466 351.132L497.864 352.912ZM491.526 348.771C492.824 349.21 493.985 348.708 494.399 347.483C494.823 346.228 494.17 345.178 492.886 344.744C491.602 344.311 490.432 344.744 490.008 345.999C489.594 347.225 490.227 348.333 491.526 348.771ZM491.606 335.967L493.272 336.469L493.072 337.133C492.682 338.43 493.131 339.45 494.546 339.876L498.085 340.942L497.544 342.741L490.274 340.552L490.784 338.856L491.877 339.073C491.248 338.545 490.97 337.706 491.263 336.732C491.338 336.482 491.443 336.24 491.606 335.967ZM495.375 336.641C493.083 336.034 491.943 333.964 492.546 331.686C493.15 329.408 495.165 328.174 497.458 328.781C499.75 329.389 500.891 331.459 500.287 333.737C499.684 336.015 497.668 337.249 495.375 336.641ZM495.857 334.825C497.196 335.18 498.333 334.558 498.665 333.307C498.996 332.057 498.317 330.953 496.977 330.598C495.637 330.243 494.5 330.865 494.169 332.116C493.838 333.366 494.517 334.47 495.857 334.825ZM502.375 325.306C501.893 327.455 500.015 328.438 497.716 327.921C495.402 327.402 494.053 325.678 494.556 323.439C494.788 322.403 495.43 321.584 496.271 321.283L491.568 320.227L491.976 318.409L503.155 320.92L502.777 322.602L501.593 322.463C502.349 323.106 502.628 324.179 502.375 325.306ZM500.784 324.522C501.07 323.245 500.339 322.213 499.002 321.913C497.665 321.612 496.548 322.229 496.261 323.507C495.974 324.784 496.745 325.778 498.067 326.075C499.39 326.372 500.497 325.799 500.784 324.522ZM504.349 315.689C503.945 317.916 502.041 319.183 499.722 318.762C497.374 318.336 496.03 316.512 496.428 314.315C496.835 312.072 498.594 310.92 500.927 311.343L501.488 311.445L500.481 317.084C501.824 317.187 502.617 316.611 502.839 315.384C503.024 314.369 502.751 313.63 502.077 313.289L502.387 311.577C503.966 312.192 504.704 313.734 504.349 315.689ZM497.946 314.574C497.749 315.665 498.219 316.439 499.307 316.825L499.989 313.067C498.958 312.88 498.147 313.468 497.946 314.574ZM496.175 308.222C496.077 308.846 495.497 309.269 494.873 309.171C494.249 309.074 493.841 308.495 493.939 307.871C494.034 307.263 494.602 306.822 495.226 306.92C495.85 307.017 496.271 307.613 496.175 308.222ZM508.3 312.913L506.705 312.351C506.821 312.104 506.86 311.954 506.896 311.726C506.996 311.087 506.664 310.817 505.904 310.698L497.536 309.386L497.827 307.53L506.408 308.875C508.005 309.125 508.897 310.2 508.642 311.828C508.587 312.178 508.513 312.447 508.3 312.913Z" fill="black"></path>
<defs>
<clipPath id="clip0_1_538">
<rect width="56.3628" height="56.3628" fill="white" transform="translate(16 205)"></rect>
</clipPath>
<clipPath id="clip1_1_538">
<rect width="56.3628" height="56.3628" fill="white" transform="translate(478 205)"></rect>
</clipPath>
<clipPath id="clip2_1_538">
<rect width="56.3628" height="56.3628" fill="white" transform="translate(104 446)"></rect>
</clipPath>
</defs>
</svg>