<?xml version="1.0"?>
<svg id="Vrstva_2" data-name="Vrstva 2" xmlns="http://www.w3.org/2000/svg" viewBox="0 0 78 22.71">
  <defs>
    
  </defs>
  <g id="Vrstva_1-2" data-name="Vrstva 1">
    <g>
      <g>
        <path class="cls-1" d="M24.1,16.06v-6.67h1.87v1.33c.4-.92,1.28-1.47,2.06-1.47,1.05,0,1.95.32,2.38,1.45.48-.86,1.44-1.45,2.3-1.45,1.74,0,2.75,1.13,2.75,2.98v3.83h-1.91v-3.42c0-.85-.31-1.58-1.35-1.58s-1.45.62-1.45,1.58v3.42h-1.93v-3.42c0-.86-.38-1.58-1.35-1.58s-1.45.69-1.45,1.67v3.33h-1.93Z"></path>
        <path class="cls-1" d="M38.41,13.07c.12.92.77,1.54,1.75,1.54.88,0,1.43-.38,1.71-.92l1.7.42c-.43,1.16-1.56,2.1-3.41,2.1-2.11,0-3.72-1.4-3.72-3.52s1.58-3.45,3.62-3.45,3.57,1.27,3.58,3.35v.47h-5.24ZM41.63,11.89c-.19-.67-.79-1.12-1.56-1.12-.73,0-1.29.43-1.54,1.12h3.1Z"></path>
        <path class="cls-1" d="M49.96,16.06v-1.36c-.26.74-1.17,1.5-2.25,1.51-1.91.01-3.33-1.45-3.33-3.39s1.31-3.56,3.27-3.56c1,0,1.79.51,2.25,1.5v-4.28h2.01v9.59h-1.95ZM48.15,14.49c1.09,0,1.76-.81,1.76-1.75s-.66-1.74-1.76-1.74-1.75.79-1.75,1.74.67,1.75,1.75,1.75Z"></path>
        <path class="cls-1" d="M54.62,9.81s.85.34.85,1.37v4.89h-1.93v-6.67l1.08.41ZM53.56,8.2v-1.58h1.87v2.06l-1.87-.48Z"></path>
        <path class="cls-1" d="M62.69,16.06c-.77,0-1.25-.39-1.25-1v-.5c-.27,1.17-1.37,1.63-2.41,1.63-1.2,0-2.33-.61-2.33-1.91s1.17-1.94,2.52-2.11l2.21-.31v-.27c0-.58-.65-.73-1.13-.74-.7,0-1.24.15-1.32.92l-1.93-.18c.03-1.62,1.48-2.33,3.17-2.33,2.34,0,3.18.9,3.18,2.33v2.81h1.13v1.66h-1.83ZM59.84,13.23c-.57.09-1.21.34-1.14.85.04.34.4.5.81.5.12,0,.26-.01.38-.04.7-.08,1.51-.51,1.54-1.29v-.27l-1.58.26Z"></path>
        <path class="cls-1" d="M64.69,9.29c.61,0,1.1-.39,1.24-1.09l.27-1.36h1.68l-.47,2.46h2.44v1.72h-2.22v3.49h2.45v1.68l-2.47.04c-1.23-.01-1.97-.69-1.97-1.95v-3.26h-1.4v-1.74h.44Z"></path>
        <path class="cls-1" d="M74.3,9.25c2.46,0,3.7,1.78,3.7,3.53,0,2.02-1.64,3.42-3.7,3.42s-3.7-1.4-3.7-3.42c0-1.75,1.25-3.53,3.7-3.53ZM76.06,12.73c0-.96-.67-1.72-1.76-1.72s-1.76.75-1.76,1.71.69,1.71,1.76,1.71,1.76-.75,1.76-1.7Z"></path>
      </g>
      <g>
        <path class="cls-2" d="M8.7,14.16s.08,0,.11,0c1.7-.04,3.16-.86,4.02-2.27.12-.2.15-.43.1-.65-.06-.23-.19-.41-.39-.53-.19-.12-.43-.15-.65-.1-.23.06-.41.19-.53.39-.54.89-1.48,1.42-2.58,1.44-.02,0-.05,0-.07,0-1.13,0-2.21-.56-2.82-1.48-.17-.25-.44-.38-.72-.38-.16,0-.33.05-.48.15-.19.13-.32.32-.37.55-.05.23,0,.46.13.65.94,1.41,2.52,2.24,4.25,2.24Z"></path>
        <path class="cls-2" d="M17.17,4.88L8.77.04s-.08-.04-.13-.04-.09.01-.13.04L.13,4.88c-.08.05-.13.12-.13.22v17.35c0,.11.06.19.16.23.1.04.2.02.28-.05l4.36-4.36h12.24c.14,0,.25-.11.25-.25V5.1c0-.09-.04-.17-.13-.22ZM15.25,16.23H4.06c-.07,0-.13.02-.18.07l-1.84,1.84V6.13l6.61-3.82,6.61,3.82v10.1Z"></path>
      </g>
    </g>
  </g>
</svg>